<svg width="116" height="19" viewBox="0 0 116 19" fill="none" xmlns="http://www.w3.org/2000/svg">
<path d="M5.82834 15.216C4.83234 15.216 3.86634 15.084 2.93034 14.82C2.00634 14.544 1.26234 14.19 0.698336 13.758L1.68834 11.562C2.22834 11.958 2.87034 12.276 3.61434 12.516C4.35834 12.756 5.10234 12.876 5.84634 12.876C6.67434 12.876 7.28634 12.756 7.68234 12.516C8.07834 12.264 8.27634 11.934 8.27634 11.526C8.27634 11.226 8.15634 10.98 7.91634 10.788C7.68834 10.584 7.38834 10.422 7.01634 10.302C6.65634 10.182 6.16434 10.05 5.54034 9.906C4.58034 9.678 3.79434 9.45 3.18234 9.222C2.57034 8.994 2.04234 8.628 1.59834 8.124C1.16634 7.62 0.950336 6.948 0.950336 6.108C0.950336 5.376 1.14834 4.716 1.54434 4.128C1.94034 3.528 2.53434 3.054 3.32634 2.706C4.13034 2.358 5.10834 2.184 6.26034 2.184C7.06434 2.184 7.85034 2.28 8.61834 2.472C9.38634 2.664 10.0583 2.94 10.6343 3.3L9.73434 5.514C8.57034 4.854 7.40634 4.524 6.24234 4.524C5.42634 4.524 4.82034 4.656 4.42434 4.92C4.04034 5.184 3.84834 5.532 3.84834 5.964C3.84834 6.396 4.07034 6.72 4.51434 6.936C4.97034 7.14 5.66034 7.344 6.58434 7.548C7.54434 7.776 8.33034 8.004 8.94234 8.232C9.55434 8.46 10.0763 8.82 10.5083 9.312C10.9523 9.804 11.1743 10.47 11.1743 11.31C11.1743 12.03 10.9703 12.69 10.5623 13.29C10.1663 13.878 9.56634 14.346 8.76234 14.694C7.95834 15.042 6.98034 15.216 5.82834 15.216ZM17.5769 15.144C16.5569 15.144 15.6389 14.934 14.8229 14.514C14.0189 14.082 13.3889 13.488 12.9329 12.732C12.4769 11.976 12.2489 11.118 12.2489 10.158C12.2489 9.198 12.4769 8.34 12.9329 7.584C13.3889 6.828 14.0189 6.24 14.8229 5.82C15.6389 5.388 16.5569 5.172 17.5769 5.172C18.5969 5.172 19.5089 5.388 20.3129 5.82C21.1169 6.24 21.7469 6.828 22.2029 7.584C22.6589 8.34 22.8869 9.198 22.8869 10.158C22.8869 11.118 22.6589 11.976 22.2029 12.732C21.7469 13.488 21.1169 14.082 20.3129 14.514C19.5089 14.934 18.5969 15.144 17.5769 15.144ZM17.5769 12.84C18.2969 12.84 18.8849 12.6 19.3409 12.12C19.8089 11.628 20.0429 10.974 20.0429 10.158C20.0429 9.342 19.8089 8.694 19.3409 8.214C18.8849 7.722 18.2969 7.476 17.5769 7.476C16.8569 7.476 16.2629 7.722 15.7949 8.214C15.3269 8.694 15.0929 9.342 15.0929 10.158C15.0929 10.974 15.3269 11.628 15.7949 12.12C16.2629 12.6 16.8569 12.84 17.5769 12.84ZM29.4438 15.144C28.4118 15.144 27.4818 14.934 26.6538 14.514C25.8378 14.082 25.1958 13.488 24.7278 12.732C24.2718 11.976 24.0438 11.118 24.0438 10.158C24.0438 9.198 24.2718 8.34 24.7278 7.584C25.1958 6.828 25.8378 6.24 26.6538 5.82C27.4818 5.388 28.4118 5.172 29.4438 5.172C30.4638 5.172 31.3518 5.388 32.1078 5.82C32.8758 6.24 33.4338 6.846 33.7818 7.638L31.6038 8.808C31.0998 7.92 30.3738 7.476 29.4258 7.476C28.6938 7.476 28.0878 7.716 27.6078 8.196C27.1278 8.676 26.8878 9.33 26.8878 10.158C26.8878 10.986 27.1278 11.64 27.6078 12.12C28.0878 12.6 28.6938 12.84 29.4258 12.84C30.3858 12.84 31.1118 12.396 31.6038 11.508L33.7818 12.696C33.4338 13.464 32.8758 14.064 32.1078 14.496C31.3518 14.928 30.4638 15.144 29.4438 15.144ZM35.3985 5.316H38.2065V15H35.3985V5.316ZM36.8025 3.966C36.2865 3.966 35.8665 3.816 35.5425 3.516C35.2185 3.216 35.0565 2.844 35.0565 2.4C35.0565 1.956 35.2185 1.584 35.5425 1.284C35.8665 0.983999 36.2865 0.833999 36.8025 0.833999C37.3185 0.833999 37.7385 0.977999 38.0625 1.266C38.3865 1.554 38.5485 1.914 38.5485 2.346C38.5485 2.814 38.3865 3.204 38.0625 3.516C37.7385 3.816 37.3185 3.966 36.8025 3.966ZM44.7186 5.172C46.2186 5.172 47.3706 5.532 48.1746 6.252C48.9786 6.96 49.3806 8.034 49.3806 9.474V15H46.7526V13.794C46.2246 14.694 45.2406 15.144 43.8006 15.144C43.0566 15.144 42.4086 15.018 41.8566 14.766C41.3166 14.514 40.9026 14.166 40.6146 13.722C40.3266 13.278 40.1826 12.774 40.1826 12.21C40.1826 11.31 40.5186 10.602 41.1906 10.086C41.8746 9.57 42.9246 9.312 44.3406 9.312H46.5726C46.5726 8.7 46.3866 8.232 46.0146 7.908C45.6426 7.572 45.0846 7.404 44.3406 7.404C43.8246 7.404 43.3146 7.488 42.8106 7.656C42.3186 7.812 41.8986 8.028 41.5506 8.304L40.5426 6.342C41.0706 5.97 41.7006 5.682 42.4326 5.478C43.1766 5.274 43.9386 5.172 44.7186 5.172ZM44.5026 13.254C44.9826 13.254 45.4086 13.146 45.7806 12.93C46.1526 12.702 46.4166 12.372 46.5726 11.94V10.95H44.6466C43.4946 10.95 42.9186 11.328 42.9186 12.084C42.9186 12.444 43.0566 12.732 43.3326 12.948C43.6206 13.152 44.0106 13.254 44.5026 13.254ZM51.922 1.644H54.73V15H51.922V1.644ZM68.0857 2.4C69.2017 2.4 70.1677 2.586 70.9837 2.958C71.8117 3.33 72.4477 3.858 72.8917 4.542C73.3357 5.226 73.5577 6.036 73.5577 6.972C73.5577 7.896 73.3357 8.706 72.8917 9.402C72.4477 10.086 71.8117 10.614 70.9837 10.986C70.1677 11.346 69.2017 11.526 68.0857 11.526H65.5477V15H62.6317V2.4H68.0857ZM67.9237 9.15C68.7997 9.15 69.4657 8.964 69.9217 8.592C70.3777 8.208 70.6057 7.668 70.6057 6.972C70.6057 6.264 70.3777 5.724 69.9217 5.352C69.4657 4.968 68.7997 4.776 67.9237 4.776H65.5477V9.15H67.9237ZM75.4415 5.316H78.2495V15H75.4415V5.316ZM76.8455 3.966C76.3295 3.966 75.9095 3.816 75.5855 3.516C75.2615 3.216 75.0995 2.844 75.0995 2.4C75.0995 1.956 75.2615 1.584 75.5855 1.284C75.9095 0.983999 76.3295 0.833999 76.8455 0.833999C77.3615 0.833999 77.7815 0.977999 78.1055 1.266C78.4295 1.554 78.5915 1.914 78.5915 2.346C78.5915 2.814 78.4295 3.204 78.1055 3.516C77.7815 3.816 77.3615 3.966 76.8455 3.966ZM86.5796 5.172C87.4796 5.172 88.2956 5.382 89.0276 5.802C89.7716 6.21 90.3536 6.792 90.7736 7.548C91.1936 8.292 91.4036 9.162 91.4036 10.158C91.4036 11.154 91.1936 12.03 90.7736 12.786C90.3536 13.53 89.7716 14.112 89.0276 14.532C88.2956 14.94 87.4796 15.144 86.5796 15.144C85.3436 15.144 84.3716 14.754 83.6636 13.974V18.492H80.8556V5.316H83.5376V6.432C84.2336 5.592 85.2476 5.172 86.5796 5.172ZM86.0936 12.84C86.8136 12.84 87.4016 12.6 87.8576 12.12C88.3256 11.628 88.5596 10.974 88.5596 10.158C88.5596 9.342 88.3256 8.694 87.8576 8.214C87.4016 7.722 86.8136 7.476 86.0936 7.476C85.3736 7.476 84.7796 7.722 84.3116 8.214C83.8556 8.694 83.6276 9.342 83.6276 10.158C83.6276 10.974 83.8556 11.628 84.3116 12.12C84.7796 12.6 85.3736 12.84 86.0936 12.84ZM102.769 10.194C102.769 10.23 102.751 10.482 102.715 10.95H95.3893C95.5213 11.55 95.8333 12.024 96.3253 12.372C96.8173 12.72 97.4293 12.894 98.1613 12.894C98.6653 12.894 99.1093 12.822 99.4933 12.678C99.8893 12.522 100.255 12.282 100.591 11.958L102.085 13.578C101.173 14.622 99.8413 15.144 98.0893 15.144C96.9973 15.144 96.0313 14.934 95.1913 14.514C94.3513 14.082 93.7033 13.488 93.2473 12.732C92.7913 11.976 92.5633 11.118 92.5633 10.158C92.5633 9.21 92.7853 8.358 93.2293 7.602C93.6853 6.834 94.3033 6.24 95.0833 5.82C95.8753 5.388 96.7573 5.172 97.7293 5.172C98.6773 5.172 99.5353 5.376 100.303 5.784C101.071 6.192 101.671 6.78 102.103 7.548C102.547 8.304 102.769 9.186 102.769 10.194ZM97.7473 7.296C97.1113 7.296 96.5773 7.476 96.1453 7.836C95.7133 8.196 95.4493 8.688 95.3533 9.312H100.123C100.027 8.7 99.7633 8.214 99.3313 7.854C98.8993 7.482 98.3713 7.296 97.7473 7.296ZM107.321 6.594C107.657 6.126 108.107 5.772 108.671 5.532C109.247 5.292 109.907 5.172 110.651 5.172V7.764C110.339 7.74 110.129 7.728 110.021 7.728C109.217 7.728 108.587 7.956 108.131 8.412C107.675 8.856 107.447 9.528 107.447 10.428V15H104.639V5.316H107.321V6.594Z" fill="#0A0047"/>
<path d="M113.453 15.144C112.961 15.144 112.547 14.976 112.211 14.64C111.875 14.304 111.707 13.884 111.707 13.38C111.707 12.864 111.875 12.45 112.211 12.138C112.547 11.814 112.961 11.652 113.453 11.652C113.945 11.652 114.359 11.814 114.695 12.138C115.031 12.45 115.199 12.864 115.199 13.38C115.199 13.884 115.031 14.304 114.695 14.64C114.359 14.976 113.945 15.144 113.453 15.144Z" fill="#A1D24C"/>
</svg>
